<?xml version="1.0" encoding="UTF-8"?>
<svg width="40px" height="40px" viewBox="0 0 40 40" version="1.1" xmlns="http://www.w3.org/2000/svg" xmlns:xlink="http://www.w3.org/1999/xlink">
    <title>ic_bnb_40x40</title>
    <g id="Symbol" stroke="none" stroke-width="1" fill="none" fill-rule="evenodd">
        <g id="Verticals-Icon/4.-BNB/40x40">
            <rect id="empty_space" fill-opacity="0" fill="#FFFFFF" x="0" y="0" width="40" height="40"></rect>
            <g id="Quick-Link-Icons/3.-Lodgings" transform="translate(6.000000, 6.000000)" fill-rule="nonzero">
                <g id="house" transform="translate(0.000000, 0.666667)">
                    <path d="M24.1960784,9 C24.5478431,9 24.8333333,9.29333333 24.8333333,9.6547619 L24.8333333,9.6547619 L24.8333333,26.0238095 C24.8333333,26.7473214 24.2629902,27.3333333 23.5588235,27.3333333 L23.5588235,27.3333333 L4.44117647,27.3333333 C3.7370098,27.3333333 3.16666667,26.7473214 3.16666667,26.0238095 L3.16666667,26.0238095 L3.16666667,9.6547619 C3.16666667,9.29333333 3.45215686,9 3.80392157,9 L3.80392157,9 Z M15.875,16.3333333 L12.125,16.3333333 C11.78,16.3333333 11.5,16.5573333 11.5,16.8333333 L11.5,16.8333333 L11.5,18.8333333 C11.5,19.1093333 11.78,19.3333333 12.125,19.3333333 L12.125,19.3333333 L15.875,19.3333333 C16.22,19.3333333 16.5,19.1093333 16.5,18.8333333 L16.5,18.8333333 L16.5,16.8333333 C16.5,16.5573333 16.22,16.3333333 15.875,16.3333333 L15.875,16.3333333 Z" id="Combined-Shape" fill="#FFAEA1"></path>
                    <path d="M15.875,22.3333333 L12.125,22.3333333 C11.78,22.3333333 11.5,22.5573333 11.5,22.8333333 L11.5,27.3333333 L16.5,27.3333333 L16.5,22.8333333 C16.5,22.5573333 16.22,22.3333333 15.875,22.3333333 Z" id="Path" fill="#AA2A1B"></path>
                    <path d="M27.2666667,9.9178886 L21.4855472,0.350557321 C21.3776107,0.13565871 21.1579282,0 20.9172932,0 L7.08270677,0 C6.84207185,0 6.62238931,0.13565871 6.5144528,0.350557321 L0.733333333,9.9178886 C0.68952381,10.0053694 0.666666667,10.102993 0.666666667,10.2012505 C0.666666667,13.2662498 27.3333333,13.2662498 27.3333333,10.2012505 C27.3333333,10.102993 27.3104762,10.0053694 27.2666667,9.9178886 Z" id="Path" fill="#FA5B4A"></path>
                    <path d="M4.47619048,14.1666667 C5.81587302,14.1666667 6.97396825,13.5494048 7.65079365,12.5952381 C8.32761905,13.5494048 9.48571429,14.1666667 10.8253968,14.1666667 C12.1650794,14.1666667 13.3231746,13.5494048 14,12.5952381 C14.6768254,13.5494048 15.8349206,14.1666667 17.1746032,14.1666667 C18.5142857,14.1666667 19.672381,13.5494048 20.3492063,12.5952381 C21.0260317,13.5494048 22.184127,14.1666667 23.5238095,14.1666667 C25.4196825,14.1666667 27.3333333,12.8779762 27.3333333,10 L0.666666667,10 C0.666666667,12.8779762 2.58031746,14.1666667 4.47619048,14.1666667 Z" id="Path" fill="#DD3C2A"></path>
                </g>
            </g>
        </g>
    </g>
</svg>