<?xml version="1.0" encoding="UTF-8"?>
<svg width="40px" height="40px" viewBox="0 0 40 40" version="1.1" xmlns="http://www.w3.org/2000/svg" xmlns:xlink="http://www.w3.org/1999/xlink">
    <title>ic_accommodation_hotel_40x40_colored</title>
    <g id="Symbols" stroke="none" stroke-width="1" fill="none" fill-rule="evenodd">
        <g id="Accommodation/Hotel/40x40/Colored">
            <rect id="empty_space" fill-opacity="0" fill="#FFFFFF" x="0" y="0" width="40" height="40"></rect>
            <g id="Group" transform="translate(8.000000, 5.000000)">
                <rect id="Rectangle" fill="#495056" x="11" y="0" width="2" height="5" rx="1"></rect>
                <rect id="Rectangle" fill="#848C94" x="0" y="16" width="14" height="13" rx="1"></rect>
                <path d="M8,4 C8,3.44771525 8.44771525,3 9,3 L15,3 C15.5522847,3 16,3.44771525 16,4 L16,8 L18,8 C18.5522847,8 19,8.44771525 19,9 L19,29 L6,29 C5.44771525,29 5,28.5522847 5,28 L5,9 C5,8.44771525 5.44771525,8 6,8 L8,8 L8,4 Z" id="Combined-Shape" fill="#CED4DA"></path>
                <rect id="Rectangle" fill="#666D75" x="12" y="13" width="12" height="16" rx="1"></rect>
                <path d="M20.25,23.75 C20.6642136,23.75 21,24.0857864 21,24.5 C21,24.9142136 20.6642136,25.25 20.25,25.25 L15.75,25.25 C15.3357864,25.25 15,24.9142136 15,24.5 C15,24.0857864 15.3357864,23.75 15.75,23.75 L20.25,23.75 Z M20.25,20.25 C20.6642136,20.25 21,20.5857864 21,21 C21,21.4142136 20.6642136,21.75 20.25,21.75 L15.75,21.75 C15.3357864,21.75 15,21.4142136 15,21 C15,20.5857864 15.3357864,20.25 15.75,20.25 L20.25,20.25 Z M20.25,16.75 C20.6642136,16.75 21,17.0857864 21,17.5 C21,17.9142136 20.6642136,18.25 20.25,18.25 L15.75,18.25 C15.3357864,18.25 15,17.9142136 15,17.5 C15,17.0857864 15.3357864,16.75 15.75,16.75 L20.25,16.75 Z" id="Combined-Shape" fill="#FFD764"></path>
            </g>
        </g>
    </g>
</svg>