<?xml version="1.0" encoding="UTF-8"?>
<svg width="40px" height="40px" viewBox="0 0 40 40" version="1.1" xmlns="http://www.w3.org/2000/svg" xmlns:xlink="http://www.w3.org/1999/xlink">
    <title>ic_accommodation_pension_40x40_colored</title>
    <g id="Symbols" stroke="none" stroke-width="1" fill="none" fill-rule="evenodd">
        <g id="Accommodation/Pension/40x40/Colored">
            <rect id="empty_space" fill-opacity="0" fill="#FFFFFF" x="0" y="0" width="40" height="40"></rect>
            <g id="Group-3" transform="translate(5.000000, 4.000000)">
                <rect id="Rectangle" fill="#CDCDCD" x="0" y="8" width="18" height="13"></rect>
                <rect id="Rectangle" fill="#9D9D9D" x="4" y="13" width="4" height="6" rx="1"></rect>
                <rect id="Rectangle" fill="#9D9D9D" x="10" y="13" width="4" height="6" rx="1"></rect>
                <rect id="Rectangle" fill="#CDCDCD" x="0" y="21" width="30" height="8"></rect>
                <line x1="21.7434406" y1="22.8206711" x2="26.7434406" y2="22.8206711" id="Path-3" stroke="#868686" stroke-width="1.5"></line>
                <line x1="21.7434406" y1="18.8206711" x2="26.7434406" y2="18.8206711" id="Path-3" stroke="#868686" stroke-width="1.5"></line>
                <path d="M26.5,28 L26.5,18 M21.5,18 L21.5,28" id="Shape" stroke="#868686" stroke-width="1.5" stroke-linecap="round"></path>
                <path d="M0,27.6666667 C1.66666667,26.5555556 3.33333333,26 5,26 C7.5,26 7.5,27.6666667 10,27.6666667 C12.5,27.6666667 12.5,26 15,26 C17.5,26 17.5,27.6666667 20,27.6666667 C22.5,27.6666667 22.5,26 25,26 C26.6666667,26 28.3333333,26.5555556 30,27.6666667 L30,31 L0,31 L0,27.6666667 Z" id="Rectangle" fill="#44CEFF"></path>
                <path d="M0.349904189,7.40063753 L9,0 L9,0 L17.6500958,7.40063753 C17.8721587,7.59062464 18,7.86824499 18,8.16048977 L18,11 L18,11 L0,11 L0,8.16048977 C-3.57896642e-17,7.86824499 0.127841332,7.59062464 0.349904189,7.40063753 Z" id="Rectangle" fill="#2C4B8A"></path>
            </g>
        </g>
    </g>
</svg>