<svg width="512" height="512" viewBox="0 0 512 512" fill="none" xmlns="http://www.w3.org/2000/svg">
<path d="M511.5 256C511.5 397.109 397.109 511.5 256 511.5C114.891 511.5 0.5 397.109 0.5 256C0.5 114.891 114.891 0.5 256 0.5C397.109 0.5 511.5 114.891 511.5 256Z" fill="#DBDBDB" stroke="black"/>
<path d="M176.373 109.961L268.85 202.44H188.199L176.373 109.961Z" fill="black"/>
<path d="M291.491 509.035L188.818 406.362L350.639 112.687L510.921 273.016C502.941 394.34 410.289 492.523 291.491 509.035Z" fill="#9D9D9D" stroke="black"/>
<path d="M316.594 206.657C302.611 204.211 295.89 186.172 301.582 166.364C305.518 152.669 324.646 130.348 336.076 117.876C340.512 113.037 346.204 114.033 347.566 119.886C351.076 134.972 356.156 161.527 352.221 175.222C346.527 195.029 330.576 209.103 316.594 206.657Z" fill="#6A6865"/>
<path d="M319.822 213.492C318.364 213.492 316.91 213.37 315.464 213.116C308.525 211.902 302.498 207.712 298.499 201.314C292.584 191.857 291.381 178.112 295.279 164.552C299.387 150.263 317.102 128.872 331.24 113.445C335.15 109.178 340.309 107.375 345.052 108.62C349.47 109.778 352.798 113.435 353.953 118.4C358.325 137.189 362.667 162.615 358.523 177.035C352.384 198.389 335.963 213.49 319.822 213.492ZM341.304 121.915C341.182 122.024 341.049 122.156 340.909 122.308C322.537 142.354 310.499 159.072 307.884 168.176C304.996 178.219 305.645 188.008 309.62 194.362C311.677 197.653 314.404 199.616 317.722 200.197C328.314 202.054 341.212 189.779 345.915 173.411C348.486 164.473 346.803 145.722 341.304 121.915Z" fill="#74675A"/>
<path d="M195.406 206.657C209.389 204.211 216.11 186.172 210.418 166.364C206.482 152.669 187.354 130.348 175.924 117.876C171.488 113.037 165.796 114.033 164.434 119.886C160.924 134.972 155.844 161.527 159.779 175.222C165.473 195.029 181.422 209.103 195.406 206.657Z" fill="#6F6D6C"/>
<path d="M192.176 213.492C176.035 213.492 159.615 198.391 153.476 177.035C149.333 162.616 153.674 137.19 158.046 118.4C159.201 113.435 162.53 109.779 166.947 108.62C171.693 107.374 176.851 109.18 180.759 113.445C194.897 128.872 212.613 150.262 216.72 164.552C220.618 178.112 219.414 191.857 213.498 201.314C209.499 207.71 203.475 211.902 196.535 213.116C195.091 213.37 193.634 213.492 192.176 213.492ZM170.694 121.915C165.195 145.724 163.512 164.475 166.081 173.412C170.786 189.78 183.682 202.053 194.274 200.198C197.593 199.617 200.318 197.654 202.376 194.363C206.351 188.007 207 178.219 204.112 168.177C201.495 159.073 189.459 142.355 171.087 122.309C170.951 122.154 170.818 122.023 170.694 121.915Z" fill="#74675A"/>
<path d="M151.704 269.328C151.704 364.029 198.399 432.494 256 432.494C313.601 432.494 360.296 364.031 360.296 269.328C360.296 174.625 313.601 147.122 256 147.122C198.399 147.122 151.704 174.626 151.704 269.328Z" fill="#74675A"/>
<path d="M256 147.123C255.519 147.123 255.042 147.13 254.564 147.133V432.467C255.043 432.476 255.521 432.493 256 432.493C313.601 432.493 360.296 364.03 360.296 269.327C360.296 174.624 313.601 147.123 256 147.123Z" fill="#A89E98"/>
<path d="M151.704 269.328C151.704 343.801 180.588 402.024 220.938 423.509C231.019 421.837 238.112 412.792 238.201 390.712C238.449 328.946 204.628 210.491 190.994 165.277C167.057 182.882 151.704 215.056 151.704 269.328Z" fill="#633F28"/>
<path d="M360.296 269.328C360.296 343.801 331.412 402.024 291.062 423.509C280.981 421.837 273.888 412.792 273.799 390.712C273.551 328.946 307.372 210.491 321.006 165.277C344.943 182.882 360.296 215.056 360.296 269.328Z" fill="#633F28"/>
<path d="M206.938 267.809C211.717 267.809 215.592 263.934 215.592 259.155C215.592 254.376 211.717 250.501 206.938 250.501C202.159 250.501 198.284 254.376 198.284 259.155C198.284 263.934 202.159 267.809 206.938 267.809Z" fill="#3A3A3A"/>
<path d="M305.08 267.809C309.859 267.809 313.734 263.934 313.734 259.155C313.734 254.376 309.859 250.501 305.08 250.501C300.301 250.501 296.426 254.376 296.426 259.155C296.426 263.934 300.301 267.809 305.08 267.809Z" fill="#1E1D1D"/>
<path d="M254.121 430.356C297.06 430.356 331.869 407.896 331.869 380.19C331.869 352.484 297.06 330.024 254.121 330.024C211.182 330.024 176.373 352.484 176.373 380.19C176.373 407.896 211.182 430.356 254.121 430.356Z" fill="#6A6865"/>
<path d="M331.881 380.183C331.881 352.573 297.305 330.181 254.564 330.028V430.339C297.303 430.187 331.881 407.793 331.881 380.183Z" fill="#53514F"/>
<path d="M214.161 390.72C219.977 390.72 224.691 386.006 224.691 380.19C224.691 374.374 219.977 369.66 214.161 369.66C208.345 369.66 203.631 374.374 203.631 380.19C203.631 386.006 208.345 390.72 214.161 390.72Z" fill="#3A3A3A"/>
<path d="M294.081 390.72C299.897 390.72 304.611 386.006 304.611 380.19C304.611 374.374 299.897 369.66 294.081 369.66C288.265 369.66 283.551 374.374 283.551 380.19C283.551 386.006 288.265 390.72 294.081 390.72Z" fill="#1E1D1D"/>
<path d="M283.739 138.487C269.248 129.802 215.91 122.62 206.182 154.447C189.964 207.507 254.608 238.841 254.608 238.841L241.122 200.855C241.122 200.855 285.74 234.873 301.078 237.035L281.262 205.918L325.972 216.784C325.97 216.783 323.493 162.309 283.739 138.487Z" fill="black"/>
<path d="M254.609 238.84L254.564 238.712V238.817C254.592 238.833 254.609 238.84 254.609 238.84Z" fill="#3A3A3A"/>
<path d="M301.077 237.034L281.261 205.917L325.971 216.783C325.971 216.783 323.494 162.309 283.741 138.487C278.181 135.155 266.902 132.055 254.566 131.283V210.683C268.986 220.908 291.154 235.635 301.077 237.034Z" fill="black"/>
</svg>
