<svg width="120" height="50" viewBox="0 0 120 50" fill="none" xmlns="http://www.w3.org/2000/svg">
<rect x="1.5" y="1.5" width="117" height="47" rx="3.5" fill="white" stroke="#5779F4" stroke-width="3"/>
<path d="M38.5788 19.166H34.4208V17.186H32.9448V19.166H28.7688V20.354H38.5788V19.166ZM31.1988 24.26C31.1988 23.126 32.2068 22.406 33.6828 22.406C35.1408 22.406 36.1488 23.126 36.1488 24.26C36.1488 25.376 35.1408 26.096 33.6828 26.096C32.2068 26.096 31.1988 25.376 31.1988 24.26ZM34.4208 27.212C36.3288 26.978 37.5528 25.862 37.5528 24.26C37.5528 22.442 35.9868 21.272 33.6828 21.272C31.3788 21.272 29.7948 22.442 29.7948 24.26C29.7948 25.88 31.0368 26.996 32.9448 27.23V28.958C31.3428 29.012 29.7948 29.03 28.4268 29.03L28.6428 30.272C31.6128 30.272 35.5008 30.218 39.1008 29.624L38.9928 28.526C37.5168 28.724 35.9508 28.832 34.4208 28.904V27.212ZM40.0188 17.186V33.332H41.4948V17.186H40.0188ZM53.3554 26.726V27.824H56.6314V29.48H58.1074V17.186H56.6314V26.726H53.3554ZM50.0614 18.932C51.5914 18.932 52.6354 19.616 52.6354 20.642C52.6354 21.686 51.5914 22.37 50.0614 22.37C48.5314 22.37 47.4874 21.686 47.4874 20.642C47.4874 19.616 48.5314 18.932 50.0614 18.932ZM50.0614 23.468C52.4194 23.468 54.0394 22.37 54.0394 20.642C54.0394 18.95 52.4194 17.834 50.0614 17.834C47.7034 17.834 46.0834 18.95 46.0834 20.642C46.0834 22.37 47.7034 23.468 50.0614 23.468ZM49.4854 28.904H50.9614V25.718C52.4194 25.628 53.9134 25.466 55.3354 25.25L55.2094 24.188C51.7894 24.62 47.7934 24.656 44.8054 24.656L45.0034 25.88C46.3354 25.88 47.8834 25.862 49.4854 25.79V28.904ZM48.5854 31.766V28.274H47.1094V32.972H58.5214V31.766H48.5854ZM62.318 18.914V20.138H68.24C67.898 23.954 65.684 27.05 61.562 29.12L62.372 30.272C67.592 27.662 69.698 23.504 69.698 18.914H62.318ZM76.466 23.738H73.874V17.186H72.398V33.332H73.874V24.962H76.466V23.738ZM89.7846 17.204V25.862H91.2606V17.204H89.7846ZM80.8566 26.654V33.116H91.2606V26.654H89.8026V28.634H82.3146V26.654H80.8566ZM82.3146 29.786H89.8026V31.928H82.3146V29.786ZM82.5846 17.96C80.1546 17.96 78.3906 19.472 78.3906 21.668C78.3906 23.9 80.1546 25.394 82.5846 25.394C85.0326 25.394 86.8146 23.9 86.8146 21.668C86.8146 19.472 85.0326 17.96 82.5846 17.96ZM82.5846 19.184C84.2226 19.184 85.3746 20.21 85.3746 21.668C85.3746 23.144 84.2226 24.17 82.5846 24.17C80.9826 24.17 79.8306 23.144 79.8306 21.668C79.8306 20.21 80.9826 19.184 82.5846 19.184Z" fill="black"/>
</svg>
