<svg width="170" height="70" viewBox="0 0 170 70" fill="none" xmlns="http://www.w3.org/2000/svg">
<path d="M21.4149 38.55V41.375H16.7649V56H13.2649V41.375H8.61494V38.55H21.4149ZM27.4687 44.3C27.9187 43.5667 28.502 42.9917 29.2187 42.575C29.952 42.1583 30.7853 41.95 31.7187 41.95V45.625H30.7937C29.6937 45.625 28.8603 45.8833 28.2937 46.4C27.7437 46.9167 27.4687 47.8167 27.4687 49.1V56H23.9687V42.15H27.4687V44.3ZM33.1761 49.025C33.1761 47.625 33.4511 46.3833 34.0011 45.3C34.5677 44.2167 35.3261 43.3833 36.2761 42.8C37.2427 42.2167 38.3177 41.925 39.5011 41.925C40.5344 41.925 41.4344 42.1333 42.2011 42.55C42.9844 42.9667 43.6094 43.4917 44.0761 44.125V42.15H47.6011V56H44.0761V53.975C43.6261 54.625 43.0011 55.1667 42.2011 55.6C41.4177 56.0167 40.5094 56.225 39.4761 56.225C38.3094 56.225 37.2427 55.925 36.2761 55.325C35.3261 54.725 34.5677 53.8833 34.0011 52.8C33.4511 51.7 33.1761 50.4417 33.1761 49.025ZM44.0761 49.075C44.0761 48.225 43.9094 47.5 43.5761 46.9C43.2427 46.2833 42.7927 45.8167 42.2261 45.5C41.6594 45.1667 41.0511 45 40.4011 45C39.7511 45 39.1511 45.1583 38.6011 45.475C38.0511 45.7917 37.6011 46.2583 37.2511 46.875C36.9177 47.475 36.7511 48.1917 36.7511 49.025C36.7511 49.8583 36.9177 50.5917 37.2511 51.225C37.6011 51.8417 38.0511 52.3167 38.6011 52.65C39.1677 52.9833 39.7677 53.15 40.4011 53.15C41.0511 53.15 41.6594 52.9917 42.2261 52.675C42.7927 52.3417 43.2427 51.875 43.5761 51.275C43.9094 50.6583 44.0761 49.925 44.0761 49.075ZM56.7944 52.775L60.2944 42.15H64.0194L58.8944 56H54.6444L49.5444 42.15H53.2944L56.7944 52.775ZM78.8603 48.775C78.8603 49.275 78.8269 49.725 78.7603 50.125H68.6353C68.7186 51.125 69.0686 51.9083 69.6853 52.475C70.3019 53.0417 71.0603 53.325 71.9603 53.325C73.2603 53.325 74.1853 52.7667 74.7353 51.65H78.5103C78.1103 52.9833 77.3436 54.0833 76.2103 54.95C75.0769 55.8 73.6853 56.225 72.0353 56.225C70.7019 56.225 69.5019 55.9333 68.4353 55.35C67.3853 54.75 66.5603 53.9083 65.9603 52.825C65.3769 51.7417 65.0853 50.4917 65.0853 49.075C65.0853 47.6417 65.3769 46.3833 65.9603 45.3C66.5436 44.2167 67.3603 43.3833 68.4103 42.8C69.4603 42.2167 70.6686 41.925 72.0353 41.925C73.3519 41.925 74.5269 42.2083 75.5603 42.775C76.6103 43.3417 77.4186 44.15 77.9853 45.2C78.5686 46.2333 78.8603 47.425 78.8603 48.775ZM75.2353 47.775C75.2186 46.875 74.8936 46.1583 74.2603 45.625C73.6269 45.075 72.8519 44.8 71.9353 44.8C71.0686 44.8 70.3353 45.0667 69.7353 45.6C69.1519 46.1167 68.7936 46.8417 68.6603 47.775H75.2353ZM84.9149 37.5V56H81.4149V37.5H84.9149Z" fill="black"/>
<path d="M87.4729 49.025C87.4729 47.625 87.7479 46.3833 88.2979 45.3C88.8646 44.2167 89.6229 43.3833 90.5729 42.8C91.5396 42.2167 92.6146 41.925 93.7979 41.925C94.8313 41.925 95.7313 42.1333 96.4979 42.55C97.2813 42.9667 97.9063 43.4917 98.3729 44.125V42.15H101.898V56H98.3729V53.975C97.9229 54.625 97.2979 55.1667 96.4979 55.6C95.7146 56.0167 94.8063 56.225 93.7729 56.225C92.6063 56.225 91.5396 55.925 90.5729 55.325C89.6229 54.725 88.8646 53.8833 88.2979 52.8C87.7479 51.7 87.4729 50.4417 87.4729 49.025ZM98.3729 49.075C98.3729 48.225 98.2063 47.5 97.8729 46.9C97.5396 46.2833 97.0896 45.8167 96.5229 45.5C95.9563 45.1667 95.3479 45 94.6979 45C94.0479 45 93.4479 45.1583 92.8979 45.475C92.3479 45.7917 91.8979 46.2583 91.5479 46.875C91.2146 47.475 91.0479 48.1917 91.0479 49.025C91.0479 49.8583 91.2146 50.5917 91.5479 51.225C91.8979 51.8417 92.3479 52.3167 92.8979 52.65C93.4646 52.9833 94.0646 53.15 94.6979 53.15C95.3479 53.15 95.9563 52.9917 96.5229 52.675C97.0896 52.3417 97.5396 51.875 97.8729 51.275C98.2063 50.6583 98.3729 49.925 98.3729 49.075ZM112.991 41.95C114.641 41.95 115.975 42.475 116.991 43.525C118.008 44.5583 118.516 46.0083 118.516 47.875V56H115.016V48.35C115.016 47.25 114.741 46.4083 114.191 45.825C113.641 45.225 112.891 44.925 111.941 44.925C110.975 44.925 110.208 45.225 109.641 45.825C109.091 46.4083 108.816 47.25 108.816 48.35V56H105.316V42.15H108.816V43.875C109.283 43.275 109.875 42.8083 110.591 42.475C111.325 42.125 112.125 41.95 112.991 41.95ZM129.52 41.95C131.17 41.95 132.503 42.475 133.52 43.525C134.536 44.5583 135.045 46.0083 135.045 47.875V56H131.545V48.35C131.545 47.25 131.27 46.4083 130.72 45.825C130.17 45.225 129.42 44.925 128.47 44.925C127.503 44.925 126.736 45.225 126.17 45.825C125.62 46.4083 125.345 47.25 125.345 48.35V56H121.845V42.15H125.345V43.875C125.811 43.275 126.403 42.8083 127.12 42.475C127.853 42.125 128.653 41.95 129.52 41.95ZM151.248 48.775C151.248 49.275 151.215 49.725 151.148 50.125H141.023C141.106 51.125 141.456 51.9083 142.073 52.475C142.69 53.0417 143.448 53.325 144.348 53.325C145.648 53.325 146.573 52.7667 147.123 51.65H150.898C150.498 52.9833 149.731 54.0833 148.598 54.95C147.465 55.8 146.073 56.225 144.423 56.225C143.09 56.225 141.89 55.9333 140.823 55.35C139.773 54.75 138.948 53.9083 138.348 52.825C137.765 51.7417 137.473 50.4917 137.473 49.075C137.473 47.6417 137.765 46.3833 138.348 45.3C138.931 44.2167 139.748 43.3833 140.798 42.8C141.848 42.2167 143.056 41.925 144.423 41.925C145.74 41.925 146.915 42.2083 147.948 42.775C148.998 43.3417 149.806 44.15 150.373 45.2C150.956 46.2333 151.248 47.425 151.248 48.775ZM147.623 47.775C147.606 46.875 147.281 46.1583 146.648 45.625C146.015 45.075 145.24 44.8 144.323 44.8C143.456 44.8 142.723 45.0667 142.123 45.6C141.54 46.1167 141.181 46.8417 141.048 47.775H147.623ZM157.303 44.3C157.753 43.5667 158.336 42.9917 159.053 42.575C159.786 42.1583 160.619 41.95 161.553 41.95V45.625H160.628C159.528 45.625 158.694 45.8833 158.128 46.4C157.578 46.9167 157.303 47.8167 157.303 49.1V56H153.803V42.15H157.303V44.3Z" fill="#5779F4"/>
<path d="M106.591 20.0521V33.6885H126.591V26.8703V20.0521H106.591Z" stroke="#5779F4"/>
<path d="M109.668 18.6885V22.4998M113.129 18.6885V22.4998M116.591 18.6885V22.4998M120.052 18.6885V22.4998M123.514 18.6885V22.4998M109.668 24.1431H123.514V28.234H116.995H109.668V24.1431Z" stroke="#5779F4"/>
<path d="M43.6797 22.9353C43.9587 22.9353 44.5058 23.0287 44.7662 22.9083C45.0038 22.7983 45.4349 22.7499 45.7021 22.716C46.3122 22.6383 46.4919 22.2272 46.9628 21.9076C47.1896 21.7537 47.3055 21.6185 47.5887 21.5801C47.9078 21.5368 48.2319 21.5359 48.5453 21.4779C49.1425 21.3674 49.8119 21.4494 50.3876 21.2466C51.7639 20.7617 53.2129 20.671 54.6272 20.3511C54.9607 20.2757 55.3693 20.3391 55.7107 20.3391C55.9694 20.3391 56.2897 20.2873 56.5374 20.3661C57.0176 20.5188 57.4188 20.7652 57.8807 20.9461C58.0894 21.0277 58.2656 21.1763 58.4565 21.2856C58.6885 21.4185 58.9068 21.4923 59.1444 21.6132C59.3562 21.7209 59.5164 21.8087 59.5164 22.0699C59.5164 22.3481 59.6227 22.599 59.6227 22.8812C59.6227 23.4518 60.076 23.4704 60.3932 23.8578C60.6238 24.1394 60.2335 24.8446 60.0478 25.0447C59.6911 25.4291 59.5068 26.1388 59.357 26.6343C59.2148 27.1046 58.65 27.3252 58.4417 27.7492C58.2186 28.2032 57.8098 28.5471 57.6032 29.0202C57.3239 29.6598 56.5818 29.8881 55.9794 29.9938C55.5253 30.0735 55.1103 30.0942 54.6685 30.2492C54.364 30.3561 54.0393 30.5095 53.7769 30.6579C52.9946 31.1002 51.9688 31.103 51.1197 31.346C50.692 31.4685 50.2749 31.6115 49.8561 31.7637C49.6796 31.8279 49.4912 32.056 49.3129 32.0762C49.063 32.1045 48.8345 32.2385 48.5659 32.2385C48.1333 32.2385 47.7037 32.2926 47.2669 32.2926C46.4007 32.2926 45.4957 32.3646 44.6363 32.2505C44.4563 32.2266 44.2736 32.1303 44.0989 32.1303C43.8185 32.1303 43.538 32.1303 43.2575 32.1303C42.9121 32.1303 42.5341 32.0835 42.1917 32.1333C41.7044 32.2042 41.6888 32.5829 41.5126 32.9416C41.3233 33.3271 40.9264 33.4696 40.5177 33.5336C39.9705 33.6193 39.6656 33.0275 39.4046 32.6291C39.1815 32.2885 38.8617 32.0694 38.6104 31.7547C38.3714 31.4552 37.7959 31.3192 37.4649 31.1297C36.8586 30.7825 36.6221 29.7019 36.7829 29.0473C36.8711 28.6879 37.3455 28.1014 37.6214 27.8844C37.9741 27.607 38.3238 27.3107 38.634 26.9949C39.1309 26.4893 39.7025 25.9815 40.066 25.3573C40.2328 25.0707 40.3091 24.6852 40.5177 24.4257C40.7593 24.1252 41 24.0015 41.3414 23.8278C42.0266 23.479 42.5931 23.0166 43.3608 22.8692C43.858 22.7737 44.1303 22.7817 44.5831 22.9353" stroke="black" stroke-linecap="round"/>
<path d="M63.7097 23.1474C63.8215 22.6908 63.5207 22.4318 63.3074 22.1032C63.2192 22.0517 63.2721 21.8422 63.1336 21.8327C62.9239 21.8183 62.8439 21.8864 62.8439 22.1332C62.8439 22.3713 62.7573 22.8693 62.9147 23.0347C63.0217 23.1471 63.6263 23.4881 63.7097 23.1474Z" stroke="black" stroke-width="0.5" stroke-linecap="round"/>
<path d="M41.1827 35.3141C41.0418 35.31 40.8455 35.3301 40.8351 35.1113C40.8276 34.9533 40.8534 34.8668 41.0057 34.8446C41.2551 34.8082 41.3313 34.9982 41.1247 35.1789" stroke="black" stroke-width="0.5" stroke-linecap="round"/>
<path d="M87.1119 31.7049L86.1819 30.6699C85.7019 31.0299 85.1819 31.3199 84.6219 31.5399C84.0719 31.7599 83.4669 31.8699 82.8069 31.8699C82.1969 31.8699 81.6219 31.7499 81.0819 31.5099C80.5519 31.2699 80.1219 30.9349 79.7919 30.5049C79.4719 30.0649 79.3119 29.5399 79.3119 28.9299C79.3119 28.3399 79.4469 27.8499 79.7169 27.4599C79.9869 27.0599 80.3219 26.7349 80.7219 26.4849C81.1219 26.2249 81.5119 26.0099 81.8919 25.8399C81.6919 25.6299 81.4869 25.4049 81.2769 25.1649C81.0669 24.9249 80.8869 24.6649 80.7369 24.3849C80.5969 24.0949 80.5269 23.7799 80.5269 23.4399C80.5269 22.9799 80.6419 22.5699 80.8719 22.2099C81.1119 21.8399 81.4419 21.5499 81.8619 21.3399C82.2919 21.1199 82.7919 21.0099 83.3619 21.0099C83.9419 21.0099 84.4319 21.1249 84.8319 21.3549C85.2319 21.5749 85.5369 21.8699 85.7469 22.2399C85.9669 22.6099 86.0769 23.0049 86.0769 23.4249C86.0769 23.9649 85.9019 24.4399 85.5519 24.8499C85.2019 25.2599 84.6919 25.6799 84.0219 26.1099L86.3019 28.6599C86.5619 28.3799 86.8119 28.0849 87.0519 27.7749C87.3019 27.4649 87.5419 27.1449 87.7719 26.8149L88.9419 27.6399C88.6819 27.9899 88.4119 28.3449 88.1319 28.7049C87.8519 29.0549 87.5569 29.3899 87.2469 29.7099L89.0169 31.7049H87.1119ZM82.1619 23.4999C82.1619 23.7899 82.2619 24.0649 82.4619 24.3249C82.6619 24.5849 82.9069 24.8699 83.1969 25.1799C83.6169 24.9099 83.9419 24.6349 84.1719 24.3549C84.4019 24.0649 84.5169 23.7849 84.5169 23.5149C84.5169 23.1949 84.4119 22.9249 84.2019 22.7049C84.0019 22.4849 83.7169 22.3749 83.3469 22.3749C82.9669 22.3749 82.6719 22.4849 82.4619 22.7049C82.2619 22.9149 82.1619 23.1799 82.1619 23.4999ZM81.0369 28.8099C81.0369 29.2999 81.2169 29.6949 81.5769 29.9949C81.9469 30.2949 82.4119 30.4449 82.9719 30.4449C83.3719 30.4449 83.7569 30.3699 84.1269 30.2199C84.5069 30.0699 84.8769 29.8649 85.2369 29.6049L82.7769 26.8149C82.4769 26.9749 82.1919 27.1449 81.9219 27.3249C81.6619 27.5049 81.4469 27.7149 81.2769 27.9549C81.1169 28.1849 81.0369 28.4699 81.0369 28.8099Z" fill="black"/>
</svg>
